HIERARCHY
ROOT Hips
{
	OFFSET 0.000000 71.427986 0.000000
	CHANNELS 6 Xposition Yposition Zposition Xrotation Yrotation Zrotation
	JOINT Pelvis
	{
		OFFSET 0.000000 0.000000 0.000000
		CHANNELS 3 Xrotation Yrotation Zrotation
		JOINT LeftUpLeg
		{
			OFFSET 6.797100 -2.508499 -1.318700
			CHANNELS 3 Xrotation Yrotation Zrotation
			JOINT LeftLeg
			{
				OFFSET 0.069008 -29.241863 0.690200
				CHANNELS 3 Xrotation Yrotation Zrotation
				JOINT LeftFoot
				{
					OFFSET -0.069008 -29.568123 -0.266800
					CHANNELS 3 Xrotation Yrotation Zrotation
					JOINT LeftToeBase
					{
						OFFSET 3.145500 -8.631000 16.059900
						CHANNELS 3 Xrotation Yrotation Zrotation
						End Site
						{
							OFFSET 0.000000 18.501587 0.000000
						}
					}
				}
			}
			JOINT Left_ShortSleeve
			{
				OFFSET 0.265923 -10.480953 1.153800
				CHANNELS 3 Xrotation Yrotation Zrotation
				End Site
				{
					OFFSET 1.725763 19.823879 0.000000
				}
			}
		}
		JOINT RightUpLeg
		{
			OFFSET -6.797100 -2.508499 -1.318700
			CHANNELS 3 Xrotation Yrotation Zrotation
			JOINT RightLeg
			{
				OFFSET -0.082453 -29.241932 0.688000
				CHANNELS 3 Xrotation Yrotation Zrotation
				JOINT RightFoot
				{
					OFFSET 0.082453 -29.568058 -0.264600
					CHANNELS 3 Xrotation Yrotation Zrotation
					JOINT RightToeBase
					{
						OFFSET -3.115300 -8.682800 16.113400
						CHANNELS 3 Xrotation Yrotation Zrotation
						End Site
						{
							OFFSET 0.000000 18.567114 0.000000
						}
					}
				}
			}
			JOINT Right_ShortSleeve
			{
				OFFSET -0.265923 -10.480953 1.153800
				CHANNELS 3 Xrotation Yrotation Zrotation
				End Site
				{
					OFFSET -1.725766 19.823910 0.000000
				}
			}
		}
	}
	JOINT Spine
	{
		OFFSET 0.000000 13.368103 0.470500
		CHANNELS 3 Xrotation Yrotation Zrotation
		JOINT Spine1
		{
			OFFSET 0.147000 13.837402 0.538800
			CHANNELS 3 Xrotation Yrotation Zrotation
			JOINT Spine2
			{
				OFFSET 0.168000 16.242897 -1.435500
				CHANNELS 3 Xrotation Yrotation Zrotation
				JOINT Neck
				{
					OFFSET 0.217200 18.631500 -1.679100
					CHANNELS 3 Xrotation Yrotation Zrotation
					JOINT Head
					{
						OFFSET 0.000000 6.599396 1.385900
						CHANNELS 3 Xrotation Yrotation Zrotation
						JOINT Hat
						{
							OFFSET -0.532200 27.220596 -10.096100
							CHANNELS 3 Xrotation Yrotation Zrotation
							End Site
							{
								OFFSET 0.000000 22.029861 0.000000
							}
						}
						JOINT HairD
						{
							OFFSET -10.777400 17.437393 -1.325900
							CHANNELS 3 Xrotation Yrotation Zrotation
							JOINT HairD1
							{
								OFFSET -3.290299 -11.051193 1.062200
								CHANNELS 3 Xrotation Yrotation Zrotation
								End Site
								{
									OFFSET 0.000000 11.579437 0.000000
								}
							}
						}
						JOINT HairB
						{
							OFFSET -10.777400 17.437393 1.467900
							CHANNELS 3 Xrotation Yrotation Zrotation
							JOINT HairB1
							{
								OFFSET -1.561200 -12.956299 3.590200
								CHANNELS 3 Xrotation Yrotation Zrotation
								End Site
								{
									OFFSET 0.000000 13.534866 0.000000
								}
							}
						}
						JOINT HairA
						{
							OFFSET 9.713100 17.437393 1.467900
							CHANNELS 3 Xrotation Yrotation Zrotation
							JOINT HairA1
							{
								OFFSET 1.561200 -12.956299 3.590200
								CHANNELS 3 Xrotation Yrotation Zrotation
								End Site
								{
									OFFSET 0.000000 13.534866 0.000000
								}
							}
						}
						JOINT HairC
						{
							OFFSET 9.713100 17.437393 -1.325900
							CHANNELS 3 Xrotation Yrotation Zrotation
							JOINT HairC1
							{
								OFFSET 3.290300 -11.051193 1.062200
								CHANNELS 3 Xrotation Yrotation Zrotation
								End Site
								{
									OFFSET 0.000000 11.579437 0.000000
								}
							}
						}
					}
				}
				JOINT LeftShoulder
				{
					OFFSET 5.101800 15.108002 -2.763700
					CHANNELS 3 Xrotation Yrotation Zrotation
					JOINT LeftArm
					{
						OFFSET 9.825497 2.506317 -1.597400
						CHANNELS 3 Xrotation Yrotation Zrotation
						JOINT LeftForeArm
						{
							OFFSET 21.966244 0.000000 0.000000
							CHANNELS 3 Xrotation Yrotation Zrotation
							JOINT LeftHand
							{
								OFFSET 33.879036 0.000000 0.000000
								CHANNELS 3 Xrotation Yrotation Zrotation
								JOINT LeftHandThumb1
								{
									OFFSET 6.715286 -2.359680 3.363841
									CHANNELS 3 Xrotation Yrotation Zrotation
									JOINT LeftHandThumb2
									{
										OFFSET 2.507072 -1.447464 1.447461
										CHANNELS 3 Xrotation Yrotation Zrotation
										JOINT LeftHandThumb3
										{
											OFFSET 2.898338 -1.673355 1.673357
											CHANNELS 3 Xrotation Yrotation Zrotation
											End Site
											{
												OFFSET -0.295959 3.727692 -0.131651
											}
										}
									}
								}
								JOINT LeftHandIndex1
								{
									OFFSET 14.190811 -0.254547 3.840278
									CHANNELS 3 Xrotation Yrotation Zrotation
									JOINT LeftHandIndex2
									{
										OFFSET 3.551727 0.000000 -0.000000
										CHANNELS 3 Xrotation Yrotation Zrotation
										JOINT LeftHandIndex3
										{
											OFFSET 2.894196 0.000000 0.000000
											CHANNELS 3 Xrotation Yrotation Zrotation
											End Site
											{
												OFFSET -1.000603 2.690872 0.366626
											}
										}
									}
								}
								JOINT LeftHandMiddle1
								{
									OFFSET 13.776489 0.000000 0.000000
									CHANNELS 3 Xrotation Yrotation Zrotation
									JOINT LeftHandMiddle2
									{
										OFFSET 3.438232 0.000000 0.000000
										CHANNELS 3 Xrotation Yrotation Zrotation
										JOINT LeftHandMiddle3
										{
											OFFSET 3.691551 0.000000 0.000000
											CHANNELS 3 Xrotation Yrotation Zrotation
											End Site
											{
												OFFSET -1.082298 3.499527 0.457670
											}
										}
									}
								}
								JOINT LeftHandRing1
								{
									OFFSET 13.966164 -0.268127 -3.067488
									CHANNELS 3 Xrotation Yrotation Zrotation
									JOINT LeftHandRing2
									{
										OFFSET 3.162567 0.000000 0.000000
										CHANNELS 3 Xrotation Yrotation Zrotation
										JOINT LeftHandRing3
										{
											OFFSET 3.324348 0.000000 0.000000
											CHANNELS 3 Xrotation Yrotation Zrotation
											End Site
											{
												OFFSET -0.861900 3.184998 0.405154
											}
										}
									}
								}
								JOINT LeftHandPinky1
								{
									OFFSET 13.131393 -0.168503 -5.746925
									CHANNELS 3 Xrotation Yrotation Zrotation
									JOINT LeftHandPinky2
									{
										OFFSET 2.849182 0.000000 0.000000
										CHANNELS 3 Xrotation Yrotation Zrotation
										JOINT LeftHandPinky3
										{
											OFFSET 2.805038 0.000000 0.000000
											CHANNELS 3 Xrotation Yrotation Zrotation
											End Site
											{
												OFFSET -0.882500 2.642609 0.325652
											}
										}
									}
								}
							}
							JOINT Left_Sleeve
							{
								OFFSET 6.592125 -0.646545 0.805568
								CHANNELS 3 Xrotation Yrotation Zrotation
								End Site
								{
									OFFSET -0.000179 20.275787 -0.000000
								}
							}
						}
					}
				}
				JOINT RightShoulder
				{
					OFFSET -5.731700 15.108002 -2.763700
					CHANNELS 3 Xrotation Yrotation Zrotation
					JOINT RightArm
					{
						OFFSET -9.825497 2.506317 -1.597400
						CHANNELS 3 Xrotation Yrotation Zrotation
						JOINT RightForeArm
						{
							OFFSET -21.966242 0.000000 0.000000
							CHANNELS 3 Xrotation Yrotation Zrotation
							JOINT RightHand
							{
								OFFSET -33.879032 0.000000 0.000000
								CHANNELS 3 Xrotation Yrotation Zrotation
								JOINT RightHandThumb1
								{
									OFFSET -6.715286 -2.359680 3.363841
									CHANNELS 3 Xrotation Yrotation Zrotation
									JOINT RightHandThumb2
									{
										OFFSET -2.507072 -1.447464 1.447461
										CHANNELS 3 Xrotation Yrotation Zrotation
										JOINT RightHandThumb3
										{
											OFFSET -2.898338 -1.673355 1.673357
											CHANNELS 3 Xrotation Yrotation Zrotation
											End Site
											{
												OFFSET 0.295959 3.727692 -0.131651
											}
										}
									}
								}
								JOINT RightHandIndex1
								{
									OFFSET -14.190811 -0.254547 3.840278
									CHANNELS 3 Xrotation Yrotation Zrotation
									JOINT RightHandIndex2
									{
										OFFSET -3.551727 0.000000 -0.000000
										CHANNELS 3 Xrotation Yrotation Zrotation
										JOINT RightHandIndex3
										{
											OFFSET -2.894196 0.000000 0.000000
											CHANNELS 3 Xrotation Yrotation Zrotation
											End Site
											{
												OFFSET 1.000603 2.690872 0.366626
											}
										}
									}
								}
								JOINT RightHandMiddle1
								{
									OFFSET -13.776489 0.000000 0.000000
									CHANNELS 3 Xrotation Yrotation Zrotation
									JOINT RightHandMiddle2
									{
										OFFSET -3.438232 0.000000 0.000000
										CHANNELS 3 Xrotation Yrotation Zrotation
										JOINT RightHandMiddle3
										{
											OFFSET -3.691551 0.000000 0.000000
											CHANNELS 3 Xrotation Yrotation Zrotation
											End Site
											{
												OFFSET 1.082298 3.499527 0.457670
											}
										}
									}
								}
								JOINT RightHandRing1
								{
									OFFSET -13.966164 -0.268127 -3.067488
									CHANNELS 3 Xrotation Yrotation Zrotation
									JOINT RightHandRing2
									{
										OFFSET -3.162567 0.000000 0.000000
										CHANNELS 3 Xrotation Yrotation Zrotation
										JOINT RightHandRing3
										{
											OFFSET -3.324348 0.000000 0.000000
											CHANNELS 3 Xrotation Yrotation Zrotation
											End Site
											{
												OFFSET 0.861900 3.184998 0.405154
											}
										}
									}
								}
								JOINT RightHandPinky1
								{
									OFFSET -13.131393 -0.168503 -5.746925
									CHANNELS 3 Xrotation Yrotation Zrotation
									JOINT RightHandPinky2
									{
										OFFSET -2.849182 0.000000 0.000000
										CHANNELS 3 Xrotation Yrotation Zrotation
										JOINT RightHandPinky3
										{
											OFFSET -2.805038 0.000000 0.000000
											CHANNELS 3 Xrotation Yrotation Zrotation
											End Site
											{
												OFFSET 0.882500 2.642609 0.325652
											}
										}
									}
								}
							}
							JOINT Right_Sleeve
							{
								OFFSET -6.592125 -0.646545 0.805568
								CHANNELS 3 Xrotation Yrotation Zrotation
								End Site
								{
									OFFSET 0.000179 20.275787 -0.000000
								}
							}
						}
					}
				}
				JOINT Bind_Right_JacketString
				{
					OFFSET -3.534800 11.969597 7.200700
					CHANNELS 3 Xrotation Yrotation Zrotation
					JOINT Bind_Right_JacketString1
					{
						OFFSET -0.319900 -6.102600 2.794100
						CHANNELS 3 Xrotation Yrotation Zrotation
						End Site
						{
							OFFSET 0.000000 6.719452 0.000000
						}
					}
				}
				JOINT Bind_Left_JacketString
				{
					OFFSET 2.904800 11.969597 7.200700
					CHANNELS 3 Xrotation Yrotation Zrotation
					JOINT Bind_Left_JacketString1
					{
						OFFSET 0.364800 -5.904503 3.186800
						CHANNELS 3 Xrotation Yrotation Zrotation
						End Site
						{
							OFFSET 0.000000 6.719513 0.000000
						}
					}
				}
				JOINT HairE
				{
					OFFSET 5.915200 17.612701 -11.592200
					CHANNELS 3 Xrotation Yrotation Zrotation
					JOINT HairE1
					{
						OFFSET 0.289200 -7.171898 -1.284500
						CHANNELS 3 Xrotation Yrotation Zrotation
						End Site
						{
							OFFSET 0.000000 7.291756 0.000000
						}
					}
				}
				JOINT HairF
				{
					OFFSET -0.864800 17.612701 -11.592200
					CHANNELS 3 Xrotation Yrotation Zrotation
					JOINT HairF1
					{
						OFFSET 0.000000 -14.087097 -2.127501
						CHANNELS 3 Xrotation Yrotation Zrotation
						End Site
						{
							OFFSET 0.000000 14.246841 0.000000
						}
					}
				}
				JOINT HairG
				{
					OFFSET -8.087700 17.612701 -11.592200
					CHANNELS 3 Xrotation Yrotation Zrotation
					JOINT HairG1
					{
						OFFSET -0.293600 -6.081398 -0.910100
						CHANNELS 3 Xrotation Yrotation Zrotation
						End Site
						{
							OFFSET 0.000000 6.156120 0.000000
						}
					}
				}
			}
		}
	}
	JOINT Pouch
	{
		OFFSET 0.000000 4.394501 10.847300
		CHANNELS 3 Xrotation Yrotation Zrotation
		End Site
		{
			OFFSET 0.000000 21.880577 0.000000
		}
	}
	JOINT Bag
	{
		OFFSET -13.229000 4.813004 -0.593300
		CHANNELS 3 Xrotation Yrotation Zrotation
		End Site
		{
			OFFSET 0.000000 21.880577 0.000000
		}
	}
	JOINT OccupyGuyFacialAnim_Joint
	{
		OFFSET 1.000000 -70.206398 -1.655000
		CHANNELS 3 Xrotation Yrotation Zrotation
		End Site
		{
			OFFSET 0.000000 21.880577 0.000000
		}
	}
}
MOTION
Frames: 4
Frame Time: 0.033333
-5.309142 62.954720 6.236619 -159.978726 -112.380675 -153.156419 -0.000001 -0.000001 -0.000000 -40.786751 -1.817625 8.106238 44.229839 -6.087783 2.211904 -10.692656 -2.215455 -13.715496 0.000000 -0.000002 -0.000000 -0.000003 0.000000 -0.000000 -35.816757 -5.312429 -27.695731 59.667706 -5.210566 -4.913268 -27.132264 -10.855891 10.352868 -0.000000 0.000000 -0.000000 -0.000002 0.000001 -0.000001 5.320829 0.317580 5.201048 5.686456 -0.467532 4.175660 5.662540 -0.717074 4.189591 21.471265 5.970858 -7.349947 -16.814691 31.162735 -3.755072 -0.000001 0.000000 -0.000001 -0.000001 0.000000 -0.000001 -0.000001 0.000000 -0.000001 -0.000001 0.000000 0.000000 -0.000001 0.000001 0.000002 -0.000001 0.000000 0.000000 -0.000001 0.000001 0.000002 -0.000001 0.000000 -0.000001 -0.000001 0.000000 -0.000001 2.470728 -13.172961 12.047176 -62.475324 -66.389773 -76.648219 0.000002 -70.660861 -0.000001 -45.605368 43.875096 26.905068 2.334000 -4.852046 -3.963492 13.533771 36.265897 -6.789662 0.000003 -0.000000 -0.000001 2.878045 7.353411 -58.659673 6.385704 5.826645 -95.251851 0.000000 0.000000 -0.000002 2.878043 7.353402 -58.659659 6.420567 5.823366 -95.595252 -0.000002 0.000002 -0.000001 3.051693 7.454219 -60.629718 5.249924 5.820216 -84.092777 0.000001 0.000002 0.000001 2.878044 7.353406 -58.659679 3.100882 5.166426 -61.922235 -0.000002 0.000002 0.000001 -0.000000 -0.000002 0.000001 -1.343303 23.132423 20.645124 -43.257924 -20.027518 48.321324 0.000082 98.892847 -0.000075 -73.235863 -25.066133 15.666769 2.454512 6.926614 5.617171 7.810718 -26.809461 -3.040608 0.000001 0.000001 0.000002 2.770846 -6.512103 65.405379 4.589340 -4.656654 89.164698 -0.000000 0.000001 0.000000 2.634496 -6.539969 74.809225 5.688685 -4.541739 102.810261 0.000001 0.000003 -0.000000 3.122517 -6.655032 70.080896 5.298696 -4.612885 97.926294 -0.000003 -0.000003 -0.000000 4.911929 -9.704406 53.806205 4.184471 -4.633182 84.168032 -0.000002 0.000002 -0.000003 -0.000001 -0.000001 0.000000 -0.000000 0.000000 -0.000001 -0.000000 0.000003 0.000002 -0.000000 0.000000 0.000000 -0.000000 0.000000 0.000000 -0.000000 0.000000 -0.000001 -0.000000 0.000003 0.000002 -0.000000 0.000000 0.000000 -0.000000 0.000000 0.000000 -0.000000 0.000000 -0.000001 -0.000000 0.000003 0.000002 -0.000001 -0.000001 -0.000000 -0.000001 -0.000001 -0.000000 -0.000001 -0.000001 -0.000000 
-5.680110 61.996567 6.432703 -171.728222 -120.614092 -163.310588 0.000000 -0.000001 -0.000000 -41.267030 -3.243734 4.955716 45.044544 -6.441630 1.501665 -10.147088 -8.557234 -15.048184 0.000000 -0.000001 0.000000 -0.000002 0.000001 -0.000000 -31.654379 -7.953637 -30.389875 64.532256 -6.645123 -4.955448 -33.634993 -9.948731 7.334600 -0.000000 -0.000000 0.000001 -0.000000 0.000000 0.000001 4.772590 2.861092 6.347812 5.368626 1.874360 4.800041 5.392346 1.579035 4.890154 20.047024 3.795477 -7.328053 -15.572071 19.173973 -4.641712 -0.000000 -0.000001 0.000002 -0.000000 -0.000001 0.000002 -0.000000 -0.000001 0.000001 -0.000000 -0.000001 0.000000 -0.000000 -0.000001 0.000000 -0.000000 -0.000001 0.000000 -0.000000 -0.000001 0.000000 -0.000000 -0.000001 0.000002 -0.000000 -0.000001 0.000002 1.723842 -10.327039 8.961843 -69.698945 -68.591164 -86.199549 0.000002 -62.278874 0.000004 -58.030353 52.298352 17.182394 2.334003 -4.852032 -3.963517 13.533778 36.265890 -6.789664 0.000003 0.000001 0.000003 2.878049 7.353397 -58.659679 6.385701 5.826647 -95.251865 0.000002 -0.000002 0.000005 2.878055 7.353388 -58.659679 6.420569 5.823371 -95.595246 0.000001 0.000003 -0.000001 3.051709 7.454226 -60.629731 5.249926 5.820216 -84.092838 -0.000001 0.000002 -0.000001 2.878056 7.353397 -58.659686 3.100878 5.166427 -61.922249 -0.000000 -0.000002 0.000002 -0.000001 0.000002 0.000002 -1.307681 26.382454 18.875537 -42.592076 -31.662612 55.763795 -0.000141 99.878983 0.000137 -74.368445 -40.292526 -3.103970 2.454507 6.926620 5.617172 7.810721 -26.809486 -3.040609 -0.000000 -0.000001 0.000001 2.770853 -6.512112 65.405379 4.589324 -4.656653 89.164691 -0.000001 -0.000000 0.000000 2.634487 -6.539959 74.809231 5.688671 -4.541753 102.810261 -0.000000 -0.000002 -0.000001 3.122513 -6.655026 70.080903 5.298695 -4.612883 97.926307 -0.000001 0.000001 -0.000002 4.911934 -9.704409 53.806215 4.184462 -4.633176 84.168005 0.000001 -0.000000 0.000000 0.000003 0.000001 -0.000001 -0.000001 0.000000 -0.000003 -0.000000 0.000001 -0.000001 -0.000001 0.000000 -0.000000 -0.000001 0.000000 -0.000000 -0.000001 0.000000 -0.000003 -0.000000 0.000001 -0.000001 -0.000001 0.000000 -0.000000 -0.000001 0.000000 -0.000000 -0.000001 0.000000 -0.000003 -0.000000 0.000001 -0.000001 0.000000 -0.000001 -0.000000 0.000000 -0.000001 -0.000000 0.000000 -0.000001 -0.000000 
-6.548607 61.175117 6.157582 -178.163026 -126.746181 -168.663995 0.000000 0.000003 -0.000001 -40.708129 -4.036798 3.624956 46.192641 -6.461719 1.256498 -10.994160 -13.373858 -15.794713 -0.000000 -0.000001 0.000000 -0.000002 0.000002 0.000001 -27.191456 -10.999347 -30.704825 67.721148 -8.317066 -4.980207 -39.357213 -8.765349 4.669042 -0.000000 -0.000000 0.000002 -0.000000 -0.000001 0.000000 4.311834 4.812499 6.854648 5.089731 3.740816 4.990088 5.140920 3.424117 5.165843 19.734575 2.112207 -7.053220 -14.276615 10.097919 -4.540934 0.000001 0.000000 -0.000001 0.000001 0.000000 -0.000001 0.000001 0.000000 -0.000002 0.000001 0.000000 -0.000001 0.000001 0.000002 0.000001 0.000001 0.000000 -0.000001 0.000001 0.000002 0.000001 0.000001 0.000000 -0.000001 0.000001 0.000000 -0.000001 1.240128 -8.082352 6.275890 -83.183918 -72.116054 -100.667433 -0.000000 -47.599967 0.000002 -73.806409 54.683287 8.258878 2.333987 -4.852035 -3.963496 13.533773 36.265900 -6.789641 -0.000001 -0.000000 0.000000 2.878046 7.353415 -58.659659 6.385711 5.826650 -95.251851 0.000002 0.000001 -0.000000 2.878052 7.353402 -58.659659 6.420559 5.823355 -95.595225 0.000002 -0.000001 0.000004 3.051699 7.454225 -60.629711 5.249924 5.820209 -84.092831 -0.000000 0.000001 -0.000003 2.878044 7.353406 -58.659686 3.100876 5.166433 -61.922215 0.000000 -0.000001 0.000001 0.000001 -0.000001 0.000005 -0.939604 27.795340 16.648041 -44.612460 -33.616060 57.907471 0.002636 93.746730 -0.002650 -79.605691 -52.996783 -25.111006 2.454510 6.926616 5.617171 7.810729 -26.809450 -3.040606 -0.000000 -0.000001 0.000000 2.770832 -6.512082 65.405359 4.589329 -4.656681 89.164705 -0.000001 -0.000001 -0.000002 2.634487 -6.539959 74.809225 5.688705 -4.541757 102.810289 -0.000000 -0.000000 -0.000001 3.122530 -6.655043 70.080931 5.298694 -4.612876 97.926328 0.000000 0.000000 0.000002 4.911925 -9.704398 53.806209 4.184436 -4.633194 84.168025 -0.000001 0.000001 0.000001 -0.000003 0.000000 -0.000001 -0.000001 0.000001 -0.000003 -0.000001 0.000000 -0.000000 -0.000001 0.000001 -0.000003 -0.000001 0.000001 -0.000003 -0.000001 0.000001 -0.000003 -0.000001 0.000000 -0.000000 -0.000001 0.000001 -0.000003 -0.000001 0.000001 -0.000003 -0.000001 0.000001 -0.000003 -0.000001 0.000000 -0.000000 0.000000 0.000003 -0.000001 0.000000 0.000003 -0.000001 0.000000 0.000003 -0.000001 
-7.853777 60.802307 5.559560 -181.550881 -129.492327 -172.099798 0.000000 0.000000 -0.000000 -39.447860 -4.856217 4.424644 47.169372 -6.416836 1.727009 -12.306677 -15.862814 -16.864121 0.000000 0.000002 -0.000000 0.000002 0.000003 0.000001 -23.548742 -13.668758 -28.723715 68.884015 -9.511721 -4.999463 -42.903338 -8.344899 2.272201 -0.000000 0.000000 0.000000 -0.000002 -0.000000 -0.000000 4.158976 5.989299 7.108192 5.052719 4.921803 4.880451 5.117038 4.610376 5.110173 19.551731 1.311127 -7.304990 -13.175204 5.410328 -3.534871 0.000000 0.000002 -0.000001 0.000000 0.000002 -0.000001 0.000000 0.000002 -0.000001 0.000000 0.000002 -0.000000 -0.000000 -0.000001 -0.000000 0.000000 0.000002 -0.000000 -0.000000 -0.000001 -0.000000 0.000000 0.000002 -0.000001 0.000000 0.000002 -0.000001 0.839101 -5.806124 2.447769 -87.292119 -70.616691 -108.790037 0.000004 -31.729726 -0.000001 -87.982604 57.821240 4.389806 2.334004 -4.852055 -3.963534 13.533758 36.265914 -6.789646 0.000000 0.000002 0.000000 2.878039 7.353400 -58.659679 6.385701 5.826650 -95.251851 0.000000 0.000002 -0.000003 2.878050 7.353400 -58.659679 6.420574 5.823363 -95.595252 0.000000 -0.000001 -0.000001 3.051692 7.454217 -60.629725 5.249934 5.820217 -84.092804 -0.000001 0.000002 -0.000005 2.878047 7.353399 -58.659679 3.100888 5.166438 -61.922242 0.000000 -0.000002 0.000001 0.000000 0.000001 -0.000000 -0.560571 29.606828 14.541978 -44.192540 -20.564129 54.083050 0.000049 76.429892 -0.000039 -93.581993 -57.486089 -43.941530 2.454506 6.926623 5.617174 7.810729 -26.809461 -3.040610 -0.000000 -0.000002 0.000003 2.770852 -6.512107 65.405400 4.589359 -4.656669 89.164705 -0.000002 0.000000 0.000000 2.634499 -6.539975 74.809252 5.688705 -4.541725 102.810289 0.000001 0.000000 0.000001 3.122507 -6.655024 70.080917 5.298684 -4.612901 97.926321 -0.000001 0.000000 -0.000001 4.911933 -9.704393 53.806215 4.184473 -4.633172 84.168018 0.000002 0.000001 -0.000001 -0.000001 -0.000000 -0.000002 -0.000001 -0.000001 0.000000 -0.000002 -0.000003 -0.000002 -0.000001 -0.000001 0.000001 -0.000001 -0.000001 0.000001 -0.000001 -0.000001 0.000000 -0.000002 -0.000003 -0.000001 -0.000001 -0.000001 0.000001 -0.000001 -0.000001 0.000001 -0.000001 -0.000001 0.000000 -0.000002 -0.000003 -0.000001 0.000000 0.000000 -0.000000 0.000000 0.000000 -0.000000 0.000000 0.000000 -0.000000 
